<svg class="main-svg" xmlns="http://www.w3.org/2000/svg" xmlns:xlink="http://www.w3.org/1999/xlink" width="700" height="300" style="" viewBox="0 0 700 300"><rect x="0" y="0" width="700" height="300" style="fill: rgb(255, 255, 255); fill-opacity: 1;"/><defs id="defs-764eac"><g class="clips"><clipPath id="clip764eacxyplot" class="plotclip"><rect width="540" height="160"/></clipPath><clipPath class="axesclip" id="clip764eacx"><rect x="80" y="0" width="540" height="300"/></clipPath><clipPath class="axesclip" id="clip764eacy"><rect x="0" y="60" width="700" height="160"/></clipPath><clipPath class="axesclip" id="clip764eacxy"><rect x="80" y="60" width="540" height="160"/></clipPath></g><g class="gradients"/><g class="patterns"/></defs><g class="bglayer"><rect class="bg" x="80" y="60" width="540" height="160" style="fill: rgb(229, 236, 246); fill-opacity: 1; stroke-width: 0;"/></g><g class="layer-below"><g class="imagelayer"/><g class="shapelayer"/></g><g class="cartesianlayer"><g class="subplot xy"><g class="layer-subplot"><g class="shapelayer"/><g class="imagelayer"/></g><g class="minor-gridlayer"><g class="x"/><g class="y"/></g><g class="gridlayer"><g class="x"><path class="xgrid crisp" transform="translate(140,0)" d="M0,60v160" style="stroke: rgb(255, 255, 255); stroke-opacity: 1; stroke-width: 1px;"/><path class="xgrid crisp" transform="translate(260,0)" d="M0,60v160" style="stroke: rgb(255, 255, 255); stroke-opacity: 1; stroke-width: 1px;"/><path class="xgrid crisp" transform="translate(380,0)" d="M0,60v160" style="stroke: rgb(255, 255, 255); stroke-opacity: 1; stroke-width: 1px;"/><path class="xgrid crisp" transform="translate(500,0)" d="M0,60v160" style="stroke: rgb(255, 255, 255); stroke-opacity: 1; stroke-width: 1px;"/></g><g class="y"><path class="ygrid crisp" transform="translate(0,186.67000000000002)" d="M80,0h540" style="stroke: rgb(255, 255, 255); stroke-opacity: 1; stroke-width: 1px;"/><path class="ygrid crisp" transform="translate(0,153.32999999999998)" d="M80,0h540" style="stroke: rgb(255, 255, 255); stroke-opacity: 1; stroke-width: 1px;"/><path class="ygrid crisp" transform="translate(0,120)" d="M80,0h540" style="stroke: rgb(255, 255, 255); stroke-opacity: 1; stroke-width: 1px;"/><path class="ygrid crisp" transform="translate(0,86.67)" d="M80,0h540" style="stroke: rgb(255, 255, 255); stroke-opacity: 1; stroke-width: 1px;"/></g></g><g class="zerolinelayer"><path class="yzl zl crisp" transform="translate(0,220)" d="M80,0h540" style="stroke: rgb(255, 255, 255); stroke-opacity: 1; stroke-width: 2px;"/></g><path class="xlines-below"/><path class="ylines-below"/><g class="overlines-below"/><g class="xaxislayer-below"/><g class="yaxislayer-below"/><g class="overaxes-below"/><g class="plot" transform="translate(80,60)" clip-path="url(#clip764eacxyplot)"><g class="barlayer mlayer"><g class="trace bars" style="opacity: 1;"><g class="points"><g class="point"><path d="M2.48,160V67.33H2.88V160Z" style="vector-effect: none; opacity: 1; stroke-width: 0.5px; fill: rgb(255, 215, 0); fill-opacity: 1; stroke: rgb(229, 236, 246); stroke-opacity: 1;"/></g><g class="point"><path d="M4.53,160V80H4.93V160Z" style="vector-effect: none; opacity: 1; stroke-width: 0.5px; fill: rgb(255, 215, 0); fill-opacity: 1; stroke: rgb(229, 236, 246); stroke-opacity: 1;"/></g><g class="point"><path d="M6.43,160V86.67H6.83V160Z" style="vector-effect: none; opacity: 1; stroke-width: 0.5px; fill: rgb(255, 215, 0); fill-opacity: 1; stroke: rgb(229, 236, 246); stroke-opacity: 1;"/></g><g class="point"><path d="M8.53,160V77.33H8.93V160Z" style="vector-effect: none; opacity: 1; stroke-width: 0.5px; fill: rgb(255, 215, 0); fill-opacity: 1; stroke: rgb(229, 236, 246); stroke-opacity: 1;"/></g><g class="point"><path d="M10.38,160V88H10.78V160Z" style="vector-effect: none; opacity: 1; stroke-width: 0.5px; fill: rgb(255, 215, 0); fill-opacity: 1; stroke: rgb(229, 236, 246); stroke-opacity: 1;"/></g><g class="point"><path d="M13,160V58.67H13.4V160Z" style="vector-effect: none; opacity: 1; stroke-width: 0.5px; fill: rgb(255, 215, 0); fill-opacity: 1; stroke: rgb(229, 236, 246); stroke-opacity: 1;"/></g><g class="point"><path d="M14.93,160V84H15.33V160Z" style="vector-effect: none; opacity: 1; stroke-width: 0.5px; fill: rgb(255, 215, 0); fill-opacity: 1; stroke: rgb(229, 236, 246); stroke-opacity: 1;"/></g><g class="point"><path d="M16.8,160V87.33H17.2V160Z" style="vector-effect: none; opacity: 1; stroke-width: 0.5px; fill: rgb(255, 215, 0); fill-opacity: 1; stroke: rgb(229, 236, 246); stroke-opacity: 1;"/></g><g class="point"><path d="M18.75,160V84H19.15V160Z" style="vector-effect: none; opacity: 1; stroke-width: 0.5px; fill: rgb(255, 215, 0); fill-opacity: 1; stroke: rgb(229, 236, 246); stroke-opacity: 1;"/></g><g class="point"><path d="M20.62,160V88H21.02V160Z" style="vector-effect: none; opacity: 1; stroke-width: 0.5px; fill: rgb(255, 215, 0); fill-opacity: 1; stroke: rgb(229, 236, 246); stroke-opacity: 1;"/></g><g class="point"><path d="M22.93,160V69.33H23.33V160Z" style="vector-effect: none; opacity: 1; stroke-width: 0.5px; fill: rgb(255, 215, 0); fill-opacity: 1; stroke: rgb(229, 236, 246); stroke-opacity: 1;"/></g><g class="point"><path d="M24.52,160V98.67H24.92V160Z" style="vector-effect: none; opacity: 1; stroke-width: 0.5px; fill: rgb(255, 215, 0); fill-opacity: 1; stroke: rgb(229, 236, 246); stroke-opacity: 1;"/></g><g class="point"><path d="M27,160V62.67H27.4V160Z" style="vector-effect: none; opacity: 1; stroke-width: 0.5px; fill: rgb(255, 215, 0); fill-opacity: 1; stroke: rgb(229, 236, 246); stroke-opacity: 1;"/></g><g class="point"><path d="M29.43,160V65.33H29.83V160Z" style="vector-effect: none; opacity: 1; stroke-width: 0.5px; fill: rgb(255, 215, 0); fill-opacity: 1; stroke: rgb(229, 236, 246); stroke-opacity: 1;"/></g><g class="point"><path d="M31.12,160V94.67H31.52V160Z" style="vector-effect: none; opacity: 1; stroke-width: 0.5px; fill: rgb(255, 215, 0); fill-opacity: 1; stroke: rgb(229, 236, 246); stroke-opacity: 1;"/></g><g class="point"><path d="M33.13,160V81.33H33.53V160Z" style="vector-effect: none; opacity: 1; stroke-width: 0.5px; fill: rgb(255, 215, 0); fill-opacity: 1; stroke: rgb(229, 236, 246); stroke-opacity: 1;"/></g><g class="point"><path d="M35.17,160V80.67H35.57V160Z" style="vector-effect: none; opacity: 1; stroke-width: 0.5px; fill: rgb(255, 215, 0); fill-opacity: 1; stroke: rgb(229, 236, 246); stroke-opacity: 1;"/></g><g class="point"><path d="M37.28,160V78H37.68V160Z" style="vector-effect: none; opacity: 1; stroke-width: 0.5px; fill: rgb(255, 215, 0); fill-opacity: 1; stroke: rgb(229, 236, 246); stroke-opacity: 1;"/></g><g class="point"><path d="M39.78,160V62H40.18V160Z" style="vector-effect: none; opacity: 1; stroke-width: 0.5px; fill: rgb(255, 215, 0); fill-opacity: 1; stroke: rgb(229, 236, 246); stroke-opacity: 1;"/></g><g class="point"><path d="M42.1,160V69.33H42.5V160Z" style="vector-effect: none; opacity: 1; stroke-width: 0.5px; fill: rgb(255, 215, 0); fill-opacity: 1; stroke: rgb(229, 236, 246); stroke-opacity: 1;"/></g><g class="point"><path d="M44.25,160V76.67H44.65V160Z" style="vector-effect: none; opacity: 1; stroke-width: 0.5px; fill: rgb(255, 215, 0); fill-opacity: 1; stroke: rgb(229, 236, 246); stroke-opacity: 1;"/></g><g class="point"><path d="M46.58,160V68.67H46.98V160Z" style="vector-effect: none; opacity: 1; stroke-width: 0.5px; fill: rgb(255, 215, 0); fill-opacity: 1; stroke: rgb(229, 236, 246); stroke-opacity: 1;"/></g><g class="point"><path d="M63.58,160V84H63.98V160Z" style="vector-effect: none; opacity: 1; stroke-width: 0.5px; fill: rgb(255, 215, 0); fill-opacity: 1; stroke: rgb(229, 236, 246); stroke-opacity: 1;"/></g><g class="point"><path d="M65.93,160V68H66.33V160Z" style="vector-effect: none; opacity: 1; stroke-width: 0.5px; fill: rgb(255, 215, 0); fill-opacity: 1; stroke: rgb(229, 236, 246); stroke-opacity: 1;"/></g><g class="point"><path d="M72.27,160V84H72.67V160Z" style="vector-effect: none; opacity: 1; stroke-width: 0.5px; fill: rgb(255, 215, 0); fill-opacity: 1; stroke: rgb(229, 236, 246); stroke-opacity: 1;"/></g><g class="point"><path d="M74.25,160V82.67H74.65V160Z" style="vector-effect: none; opacity: 1; stroke-width: 0.5px; fill: rgb(255, 215, 0); fill-opacity: 1; stroke: rgb(229, 236, 246); stroke-opacity: 1;"/></g><g class="point"><path d="M87.17,160V54.67H87.57V160Z" style="vector-effect: none; opacity: 1; stroke-width: 0.5px; fill: rgb(255, 215, 0); fill-opacity: 1; stroke: rgb(229, 236, 246); stroke-opacity: 1;"/></g><g class="point"><path d="M89.93,160V52H90.33V160Z" style="vector-effect: none; opacity: 1; stroke-width: 0.5px; fill: rgb(255, 215, 0); fill-opacity: 1; stroke: rgb(229, 236, 246); stroke-opacity: 1;"/></g><g class="point"><path d="M127.37,160V89.33H127.77V160Z" style="vector-effect: none; opacity: 1; stroke-width: 0.5px; fill: rgb(255, 215, 0); fill-opacity: 1; stroke: rgb(229, 236, 246); stroke-opacity: 1;"/></g><g class="point"><path d="M129.82,160V64H130.22V160Z" style="vector-effect: none; opacity: 1; stroke-width: 0.5px; fill: rgb(255, 215, 0); fill-opacity: 1; stroke: rgb(229, 236, 246); stroke-opacity: 1;"/></g><g class="point"><path d="M132.55,160V53.33H132.95V160Z" style="vector-effect: none; opacity: 1; stroke-width: 0.5px; fill: rgb(255, 215, 0); fill-opacity: 1; stroke: rgb(229, 236, 246); stroke-opacity: 1;"/></g><g class="point"><path d="M134.87,160V70H135.27V160Z" style="vector-effect: none; opacity: 1; stroke-width: 0.5px; fill: rgb(255, 215, 0); fill-opacity: 1; stroke: rgb(229, 236, 246); stroke-opacity: 1;"/></g><g class="point"><path d="M137,160V76.67H137.4V160Z" style="vector-effect: none; opacity: 1; stroke-width: 0.5px; fill: rgb(255, 215, 0); fill-opacity: 1; stroke: rgb(229, 236, 246); stroke-opacity: 1;"/></g><g class="point"><path d="M139.45,160V64.67H139.85V160Z" style="vector-effect: none; opacity: 1; stroke-width: 0.5px; fill: rgb(255, 215, 0); fill-opacity: 1; stroke: rgb(229, 236, 246); stroke-opacity: 1;"/></g><g class="point"><path d="M141.38,160V84.67H141.78V160Z" style="vector-effect: none; opacity: 1; stroke-width: 0.5px; fill: rgb(255, 215, 0); fill-opacity: 1; stroke: rgb(229, 236, 246); stroke-opacity: 1;"/></g><g class="point"><path d="M143.92,160V60.67H144.32V160Z" style="vector-effect: none; opacity: 1; stroke-width: 0.5px; fill: rgb(255, 215, 0); fill-opacity: 1; stroke: rgb(229, 236, 246); stroke-opacity: 1;"/></g><g class="point"><path d="M146.17,160V73.33H146.57V160Z" style="vector-effect: none; opacity: 1; stroke-width: 0.5px; fill: rgb(255, 215, 0); fill-opacity: 1; stroke: rgb(229, 236, 246); stroke-opacity: 1;"/></g><g class="point"><path d="M148.62,160V64H149.02V160Z" style="vector-effect: none; opacity: 1; stroke-width: 0.5px; fill: rgb(255, 215, 0); fill-opacity: 1; stroke: rgb(229, 236, 246); stroke-opacity: 1;"/></g><g class="point"><path d="M150.78,160V75.33H151.18V160Z" style="vector-effect: none; opacity: 1; stroke-width: 0.5px; fill: rgb(255, 215, 0); fill-opacity: 1; stroke: rgb(229, 236, 246); stroke-opacity: 1;"/></g><g class="point"><path d="M152.87,160V79.33H153.27V160Z" style="vector-effect: none; opacity: 1; stroke-width: 0.5px; fill: rgb(255, 215, 0); fill-opacity: 1; stroke: rgb(229, 236, 246); stroke-opacity: 1;"/></g><g class="point"><path d="M155.07,160V74H155.47V160Z" style="vector-effect: none; opacity: 1; stroke-width: 0.5px; fill: rgb(255, 215, 0); fill-opacity: 1; stroke: rgb(229, 236, 246); stroke-opacity: 1;"/></g><g class="point"><path d="M156.85,160V90.67H157.25V160Z" style="vector-effect: none; opacity: 1; stroke-width: 0.5px; fill: rgb(255, 215, 0); fill-opacity: 1; stroke: rgb(229, 236, 246); stroke-opacity: 1;"/></g><g class="point"><path d="M158.65,160V89.33H159.05V160Z" style="vector-effect: none; opacity: 1; stroke-width: 0.5px; fill: rgb(255, 215, 0); fill-opacity: 1; stroke: rgb(229, 236, 246); stroke-opacity: 1;"/></g><g class="point"><path d="M160.73,160V79.33H161.13V160Z" style="vector-effect: none; opacity: 1; stroke-width: 0.5px; fill: rgb(255, 215, 0); fill-opacity: 1; stroke: rgb(229, 236, 246); stroke-opacity: 1;"/></g><g class="point"><path d="M162.67,160V84H163.07V160Z" style="vector-effect: none; opacity: 1; stroke-width: 0.5px; fill: rgb(255, 215, 0); fill-opacity: 1; stroke: rgb(229, 236, 246); stroke-opacity: 1;"/></g><g class="point"><path d="M164.65,160V82.67H165.05V160Z" style="vector-effect: none; opacity: 1; stroke-width: 0.5px; fill: rgb(255, 215, 0); fill-opacity: 1; stroke: rgb(229, 236, 246); stroke-opacity: 1;"/></g><g class="point"><path d="M166.33,160V94.67H166.73V160Z" style="vector-effect: none; opacity: 1; stroke-width: 0.5px; fill: rgb(255, 215, 0); fill-opacity: 1; stroke: rgb(229, 236, 246); stroke-opacity: 1;"/></g><g class="point"><path d="M179.52,160V58H179.92V160Z" style="vector-effect: none; opacity: 1; stroke-width: 0.5px; fill: rgb(255, 215, 0); fill-opacity: 1; stroke: rgb(229, 236, 246); stroke-opacity: 1;"/></g><g class="point"><path d="M182.07,160V60.67H182.47V160Z" style="vector-effect: none; opacity: 1; stroke-width: 0.5px; fill: rgb(255, 215, 0); fill-opacity: 1; stroke: rgb(229, 236, 246); stroke-opacity: 1;"/></g><g class="point"><path d="M183.87,160V90H184.27V160Z" style="vector-effect: none; opacity: 1; stroke-width: 0.5px; fill: rgb(255, 215, 0); fill-opacity: 1; stroke: rgb(229, 236, 246); stroke-opacity: 1;"/></g><g class="point"><path d="M186.1,160V72.67H186.5V160Z" style="vector-effect: none; opacity: 1; stroke-width: 0.5px; fill: rgb(255, 215, 0); fill-opacity: 1; stroke: rgb(229, 236, 246); stroke-opacity: 1;"/></g><g class="point"><path d="M187.8,160V94H188.2V160Z" style="vector-effect: none; opacity: 1; stroke-width: 0.5px; fill: rgb(255, 215, 0); fill-opacity: 1; stroke: rgb(229, 236, 246); stroke-opacity: 1;"/></g><g class="point"><path d="M194.25,160V99.33H194.65V160Z" style="vector-effect: none; opacity: 1; stroke-width: 0.5px; fill: rgb(255, 215, 0); fill-opacity: 1; stroke: rgb(229, 236, 246); stroke-opacity: 1;"/></g><g class="point"><path d="M197.02,160V52.67H197.42V160Z" style="vector-effect: none; opacity: 1; stroke-width: 0.5px; fill: rgb(255, 215, 0); fill-opacity: 1; stroke: rgb(229, 236, 246); stroke-opacity: 1;"/></g><g class="point"><path d="M198.82,160V89.33H199.22V160Z" style="vector-effect: none; opacity: 1; stroke-width: 0.5px; fill: rgb(255, 215, 0); fill-opacity: 1; stroke: rgb(229, 236, 246); stroke-opacity: 1;"/></g><g class="point"><path d="M304.82,160V0.67H305.22V160Z" style="vector-effect: none; opacity: 1; stroke-width: 0.5px; fill: rgb(255, 215, 0); fill-opacity: 1; stroke: rgb(229, 236, 246); stroke-opacity: 1;"/></g><g class="point"><path d="M307.15,160V68.67H307.55V160Z" style="vector-effect: none; opacity: 1; stroke-width: 0.5px; fill: rgb(255, 215, 0); fill-opacity: 1; stroke: rgb(229, 236, 246); stroke-opacity: 1;"/></g><g class="point"><path d="M309,160V88H309.4V160Z" style="vector-effect: none; opacity: 1; stroke-width: 0.5px; fill: rgb(255, 215, 0); fill-opacity: 1; stroke: rgb(229, 236, 246); stroke-opacity: 1;"/></g><g class="point"><path d="M311.1,160V78.67H311.5V160Z" style="vector-effect: none; opacity: 1; stroke-width: 0.5px; fill: rgb(255, 215, 0); fill-opacity: 1; stroke: rgb(229, 236, 246); stroke-opacity: 1;"/></g><g class="point"><path d="M314.03,160V44.67H314.43V160Z" style="vector-effect: none; opacity: 1; stroke-width: 0.5px; fill: rgb(255, 215, 0); fill-opacity: 1; stroke: rgb(229, 236, 246); stroke-opacity: 1;"/></g><g class="point"><path d="M316.52,160V64H316.92V160Z" style="vector-effect: none; opacity: 1; stroke-width: 0.5px; fill: rgb(255, 215, 0); fill-opacity: 1; stroke: rgb(229, 236, 246); stroke-opacity: 1;"/></g><g class="point"><path d="M319.23,160V53.33H319.63V160Z" style="vector-effect: none; opacity: 1; stroke-width: 0.5px; fill: rgb(255, 215, 0); fill-opacity: 1; stroke: rgb(229, 236, 246); stroke-opacity: 1;"/></g><g class="point"><path d="M321.58,160V69.33H321.98V160Z" style="vector-effect: none; opacity: 1; stroke-width: 0.5px; fill: rgb(255, 215, 0); fill-opacity: 1; stroke: rgb(229, 236, 246); stroke-opacity: 1;"/></g><g class="point"><path d="M323.52,160V84H323.92V160Z" style="vector-effect: none; opacity: 1; stroke-width: 0.5px; fill: rgb(255, 215, 0); fill-opacity: 1; stroke: rgb(229, 236, 246); stroke-opacity: 1;"/></g><g class="point"><path d="M325.68,160V76H326.08V160Z" style="vector-effect: none; opacity: 1; stroke-width: 0.5px; fill: rgb(255, 215, 0); fill-opacity: 1; stroke: rgb(229, 236, 246); stroke-opacity: 1;"/></g><g class="point"><path d="M327.45,160V90.67H327.85V160Z" style="vector-effect: none; opacity: 1; stroke-width: 0.5px; fill: rgb(255, 215, 0); fill-opacity: 1; stroke: rgb(229, 236, 246); stroke-opacity: 1;"/></g><g class="point"><path d="M329.45,160V82H329.85V160Z" style="vector-effect: none; opacity: 1; stroke-width: 0.5px; fill: rgb(255, 215, 0); fill-opacity: 1; stroke: rgb(229, 236, 246); stroke-opacity: 1;"/></g><g class="point"><path d="M332.15,160V92H332.55V160Z" style="vector-effect: none; opacity: 1; stroke-width: 0.5px; fill: rgb(255, 215, 0); fill-opacity: 1; stroke: rgb(229, 236, 246); stroke-opacity: 1;"/></g><g class="point"><path d="M334.22,160V80H334.62V160Z" style="vector-effect: none; opacity: 1; stroke-width: 0.5px; fill: rgb(255, 215, 0); fill-opacity: 1; stroke: rgb(229, 236, 246); stroke-opacity: 1;"/></g><g class="point"><path d="M335.9,160V94H336.3V160Z" style="vector-effect: none; opacity: 1; stroke-width: 0.5px; fill: rgb(255, 215, 0); fill-opacity: 1; stroke: rgb(229, 236, 246); stroke-opacity: 1;"/></g><g class="point"><path d="M338.15,160V72H338.55V160Z" style="vector-effect: none; opacity: 1; stroke-width: 0.5px; fill: rgb(255, 215, 0); fill-opacity: 1; stroke: rgb(229, 236, 246); stroke-opacity: 1;"/></g><g class="point"><path d="M339.77,160V97.33H340.17V160Z" style="vector-effect: none; opacity: 1; stroke-width: 0.5px; fill: rgb(255, 215, 0); fill-opacity: 1; stroke: rgb(229, 236, 246); stroke-opacity: 1;"/></g><g class="point"><path d="M341.43,160V95.33H341.83V160Z" style="vector-effect: none; opacity: 1; stroke-width: 0.5px; fill: rgb(255, 215, 0); fill-opacity: 1; stroke: rgb(229, 236, 246); stroke-opacity: 1;"/></g><g class="point"><path d="M343.68,160V72.67H344.08V160Z" style="vector-effect: none; opacity: 1; stroke-width: 0.5px; fill: rgb(255, 215, 0); fill-opacity: 1; stroke: rgb(229, 236, 246); stroke-opacity: 1;"/></g><g class="point"><path d="M346.07,160V67.33H346.47V160Z" style="vector-effect: none; opacity: 1; stroke-width: 0.5px; fill: rgb(255, 215, 0); fill-opacity: 1; stroke: rgb(229, 236, 246); stroke-opacity: 1;"/></g><g class="point"><path d="M347.67,160V97.33H348.07V160Z" style="vector-effect: none; opacity: 1; stroke-width: 0.5px; fill: rgb(255, 215, 0); fill-opacity: 1; stroke: rgb(229, 236, 246); stroke-opacity: 1;"/></g><g class="point"><path d="M349.6,160V84.67H350V160Z" style="vector-effect: none; opacity: 1; stroke-width: 0.5px; fill: rgb(255, 215, 0); fill-opacity: 1; stroke: rgb(229, 236, 246); stroke-opacity: 1;"/></g><g class="point"><path d="M353.12,160V99.33H353.52V160Z" style="vector-effect: none; opacity: 1; stroke-width: 0.5px; fill: rgb(255, 215, 0); fill-opacity: 1; stroke: rgb(229, 236, 246); stroke-opacity: 1;"/></g><g class="point"><path d="M355.07,160V84H355.47V160Z" style="vector-effect: none; opacity: 1; stroke-width: 0.5px; fill: rgb(255, 215, 0); fill-opacity: 1; stroke: rgb(229, 236, 246); stroke-opacity: 1;"/></g><g class="point"><path d="M356.88,160V88.67H357.28V160Z" style="vector-effect: none; opacity: 1; stroke-width: 0.5px; fill: rgb(255, 215, 0); fill-opacity: 1; stroke: rgb(229, 236, 246); stroke-opacity: 1;"/></g><g class="point"><path d="M358.83,160V84.67H359.23V160Z" style="vector-effect: none; opacity: 1; stroke-width: 0.5px; fill: rgb(255, 215, 0); fill-opacity: 1; stroke: rgb(229, 236, 246); stroke-opacity: 1;"/></g><g class="point"><path d="M360.77,160V84H361.17V160Z" style="vector-effect: none; opacity: 1; stroke-width: 0.5px; fill: rgb(255, 215, 0); fill-opacity: 1; stroke: rgb(229, 236, 246); stroke-opacity: 1;"/></g><g class="point"><path d="M362.43,160V94.67H362.83V160Z" style="vector-effect: none; opacity: 1; stroke-width: 0.5px; fill: rgb(255, 215, 0); fill-opacity: 1; stroke: rgb(229, 236, 246); stroke-opacity: 1;"/></g><g class="point"><path d="M364.08,160V96H364.48V160Z" style="vector-effect: none; opacity: 1; stroke-width: 0.5px; fill: rgb(255, 215, 0); fill-opacity: 1; stroke: rgb(229, 236, 246); stroke-opacity: 1;"/></g><g class="point"><path d="M396.8,160V86.67H397.2V160Z" style="vector-effect: none; opacity: 1; stroke-width: 0.5px; fill: rgb(255, 215, 0); fill-opacity: 1; stroke: rgb(229, 236, 246); stroke-opacity: 1;"/></g><g class="point"><path d="M398.65,160V87.33H399.05V160Z" style="vector-effect: none; opacity: 1; stroke-width: 0.5px; fill: rgb(255, 215, 0); fill-opacity: 1; stroke: rgb(229, 236, 246); stroke-opacity: 1;"/></g><g class="point"><path d="M400.63,160V82.67H401.03V160Z" style="vector-effect: none; opacity: 1; stroke-width: 0.5px; fill: rgb(255, 215, 0); fill-opacity: 1; stroke: rgb(229, 236, 246); stroke-opacity: 1;"/></g><g class="point"><path d="M403.73,160V67.33H404.13V160Z" style="vector-effect: none; opacity: 1; stroke-width: 0.5px; fill: rgb(255, 215, 0); fill-opacity: 1; stroke: rgb(229, 236, 246); stroke-opacity: 1;"/></g><g class="point"><path d="M406.03,160V70H406.43V160Z" style="vector-effect: none; opacity: 1; stroke-width: 0.5px; fill: rgb(255, 215, 0); fill-opacity: 1; stroke: rgb(229, 236, 246); stroke-opacity: 1;"/></g><g class="point"><path d="M408.25,160V73.33H408.65V160Z" style="vector-effect: none; opacity: 1; stroke-width: 0.5px; fill: rgb(255, 215, 0); fill-opacity: 1; stroke: rgb(229, 236, 246); stroke-opacity: 1;"/></g><g class="point"><path d="M410.55,160V70.67H410.95V160Z" style="vector-effect: none; opacity: 1; stroke-width: 0.5px; fill: rgb(255, 215, 0); fill-opacity: 1; stroke: rgb(229, 236, 246); stroke-opacity: 1;"/></g><g class="point"><path d="M412.3,160V106.67H412.7V160Z" style="vector-effect: none; opacity: 1; stroke-width: 0.5px; fill: rgb(255, 215, 0); fill-opacity: 1; stroke: rgb(229, 236, 246); stroke-opacity: 1;"/></g><g class="point"><path d="M413.97,160V94.67H414.37V160Z" style="vector-effect: none; opacity: 1; stroke-width: 0.5px; fill: rgb(255, 215, 0); fill-opacity: 1; stroke: rgb(229, 236, 246); stroke-opacity: 1;"/></g><g class="point"><path d="M420.55,160V80H420.95V160Z" style="vector-effect: none; opacity: 1; stroke-width: 0.5px; fill: rgb(255, 215, 0); fill-opacity: 1; stroke: rgb(229, 236, 246); stroke-opacity: 1;"/></g><g class="point"><path d="M422.63,160V78.67H423.03V160Z" style="vector-effect: none; opacity: 1; stroke-width: 0.5px; fill: rgb(255, 215, 0); fill-opacity: 1; stroke: rgb(229, 236, 246); stroke-opacity: 1;"/></g><g class="point"><path d="M424.38,160V92H424.78V160Z" style="vector-effect: none; opacity: 1; stroke-width: 0.5px; fill: rgb(255, 215, 0); fill-opacity: 1; stroke: rgb(229, 236, 246); stroke-opacity: 1;"/></g><g class="point"><path d="M426.8,160V65.33H427.2V160Z" style="vector-effect: none; opacity: 1; stroke-width: 0.5px; fill: rgb(255, 215, 0); fill-opacity: 1; stroke: rgb(229, 236, 246); stroke-opacity: 1;"/></g><g class="point"><path d="M428.92,160V78H429.32V160Z" style="vector-effect: none; opacity: 1; stroke-width: 0.5px; fill: rgb(255, 215, 0); fill-opacity: 1; stroke: rgb(229, 236, 246); stroke-opacity: 1;"/></g><g class="point"><path d="M430.78,160V87.33H431.18V160Z" style="vector-effect: none; opacity: 1; stroke-width: 0.5px; fill: rgb(255, 215, 0); fill-opacity: 1; stroke: rgb(229, 236, 246); stroke-opacity: 1;"/></g><g class="point"><path d="M433.5,160V54H433.9V160Z" style="vector-effect: none; opacity: 1; stroke-width: 0.5px; fill: rgb(255, 215, 0); fill-opacity: 1; stroke: rgb(229, 236, 246); stroke-opacity: 1;"/></g><g class="point"><path d="M435.9,160V66H436.3V160Z" style="vector-effect: none; opacity: 1; stroke-width: 0.5px; fill: rgb(255, 215, 0); fill-opacity: 1; stroke: rgb(229, 236, 246); stroke-opacity: 1;"/></g><g class="point"><path d="M437.77,160V87.33H438.17V160Z" style="vector-effect: none; opacity: 1; stroke-width: 0.5px; fill: rgb(255, 215, 0); fill-opacity: 1; stroke: rgb(229, 236, 246); stroke-opacity: 1;"/></g><g class="point"><path d="M439.43,160V94.67H439.83V160Z" style="vector-effect: none; opacity: 1; stroke-width: 0.5px; fill: rgb(255, 215, 0); fill-opacity: 1; stroke: rgb(229, 236, 246); stroke-opacity: 1;"/></g><g class="point"><path d="M441.23,160V90H441.63V160Z" style="vector-effect: none; opacity: 1; stroke-width: 0.5px; fill: rgb(255, 215, 0); fill-opacity: 1; stroke: rgb(229, 236, 246); stroke-opacity: 1;"/></g></g></g></g><g class="scatterlayer mlayer"><g class="trace scatter trace68c61f" style="stroke-miterlimit: 2; opacity: 1;"><g class="fills"/><g class="errorbars"/><g class="lines"><path class="js-line" d="M0.22,144H0.72V144H0.98V144H1.52V144H1.77V144H2.02V144H2.67V144H3.02V144H4.03V144H4.37V144H4.62V144H5.22V144H6.03V144H6.63V144H6.88V144H7.9V144H8.73V144H8.98V144H10V144H10.62V144H11.28V144H11.67V144H12.35V144H12.6V144H12.85V144H13.13V144H14.13V144H14.47V144H14.73V144H14.98V144H16V144H16.25V144H16.68V144H16.93V144H17.95V144H18.58V144H18.85V144H19.68V144H19.95V144H20.48V144H20.73V144H21.75V144H22.25V144H22.53V144H22.8V144H23.13V144H23.38V144H24.4V144H24.65V144H24.9V144H25.15V144H26.17V144H26.53V144H26.85V144H27.1V144H27.35V144H27.85V144H28.72V144H29.05V144H29.42V144H29.68V144H30V144H30.72V144H30.98V144H31.23V144H32.25V144H32.68V144H32.93V144H33.33V144H33.6V144H34.27V144H34.68V144H35.03V144H35.28V144H36.15V144H36.52V144H37.08V144H37.35V144H38.37V144H39.38V144H39.85V144H40.1V144H40.35V144H40.68V144H41.67V144H42V144H42.3V144H42.55V144H42.8V144H43.6V144H44.1V144H44.4V144H44.77V144H45.02V144H45.7V144H45.95V144H46.45V144H46.7V144H46.95V144H47.83V160H48.08V160H48.42V160H48.67V160H49.67V160H50.68V160H51.7V160H52.72V160H53.02V160H53.27V160H54.28V160H55.45V160H56.3V160H57.32V160H58.33V160H59.33V160H60.33V160H60.62V160H61.27V144H61.52V160H61.77V144H62.78V144H63.7V144H63.95V144H64.43V144H64.68V144H65.7V144H66.1V144H66.78V144H67.8V144H68.05V144H68.3V144H68.55V144H69.25V144H69.77V144H70.03V144H70.45V144H70.72V144H71.03V144H71.28V144H72.1V144H72.35V144H73.37V144H73.65V144H73.9V144H74.45V144H74.7V144H75.43V144H75.68V144H76.68V160H77.7V160H78.72V160H79.73V160H80.25V144H80.5V144H81.52V144H82.53V144H83.57V144H84.2V144H84.45V144H85.45V144H85.7V144H86.72V144H87.35V144H87.62V144H88.6V144H88.98V144H89.62V144H90.15V144H90.4V144H90.7V144H91.07V144H91.32V144H92.33V160H93.35V160H94.37V160H95.37V160H96.38V160H97.4V160H98.42V160H99.43V160H100.43V160H101.45V160H102.48V160H103.48V160H104.48V160H105.5V160H106.52V160H107.53V160H108.53V160H109.55V160H109.8V144H110.52V144H110.8V144H111.63V160H111.88V144H112.15V144H112.4V144H112.67V144H112.93V144H113.93V160H114.95V160H115.97V160H116.98V160H117.98V160H119V160H120.02V160H120.47V144H120.72V144H121.52V160H121.77V144H122.68V160H122.93V144H123.95V144H124.9V144H125.17V144H126.17V144H127.18V144H127.57V144H127.83V144H128.1V144H128.35V144H129.27V144H129.52V144H130.02V144H130.27V144H130.77V144H131.02V144H132.03V144H132.53V144H132.78V144H133.47V144H133.78V144H134.08V144H134.65V144H135V144H135.25V144H136.27V144H137.2V144H137.45V144H138.02V144H138.8V144H139.33V144H139.58V144H140.6V144H140.85V144H141.18V144H141.52V144H141.83V144H142.13V144H143.15V144H144.17V144H144.58V144H145.08V144H145.33V144H146.35V144H147.35V144H147.82V144H148.2V144H148.85V144H149.85V144H150.18V144H150.45V144H150.98V144H151.23V144H152.25V160H153.27V144H154.28V160H155.25V144H155.48V144H156.03V144H156.28V144H156.75V144H157.05V144H157.3V144H157.73V144H158.02V144H158.47V144H159.1V144H159.35V144H160.02V144H160.35V144H160.6V144H160.93V144H161.18V144H161.78V144H162.22V144H162.53V144H162.87V144H163.12V144H163.37V144H164.38V160H165.4V160H166.42V160H166.67V144H166.92V144H167.77V144H168.2V144H169.22V160H170.23V160H171.23V160H172.25V160H173.27V160H174.28V160H175.28V160H175.82V144H176.07V144H176.32V144H176.62V144H176.87V144H177.45V144H177.92V144H178.17V144H178.43V144H179.05V144H179.38V144H179.72V144H179.97V144H180.45V144H181.3V144H181.57V144H181.88V144H182.9V144H183.48V144H183.73V144H183.98V144H185V144H185.27V144H185.83V144H186.1V144H186.97V144H187.32V144H188V144H188.25V144H188.58V144H194.08V144H194.43V144H194.68V144H195.45V144H195.7V144H196.22V144H196.6V144H196.88V144H197.13V144H197.92V144H198.35V144H198.6V144H199V144H199.27V144H199.52V144H199.83V144H200.08V144H253.7V144H254.72V160H255.72V160H256.73V160H257.75V160H258.77V160H259.77V160H260.78V160H261.8V160H262.82V160H263.82V160H264.83V160H265.85V160H266.87V160H267.87V160H268.88V160H269.9V160H270.92V160H271.92V160H272.93V160H273.95V160H274.97V160H275.98V160H276.98V160H278V160H279.02V160H280.03V160H281.03V160H282.05V160H283.07V160H284.08V160H285.08V160H286.1V160H287.12V160H288.13V160H289.13V160H290.15V160H291.17V160H292.18V160H293.18V160H294.22V160H295.22V160H296.23V160H297.23V160H298.25V160H299.27V160H299.53V144H299.87V144H300.13V144H300.38V144H300.67V144H300.93V144H301.18V144H302V144H302.63V144H303.08V144H304.08V144H304.68V144H304.93V144H305.23V144H305.53V144H306.53V144H307.37V144H307.62V144H307.95V144H308.43V144H308.72V144H309.02V144H310.03V144H310.7V144H311V144H311.3V144H311.55V144H311.8V144H312.4V144H312.92V144H313.17V144H313.42V144H313.87V144H314.12V144H315.13V144H315.4V144H315.73V144H316.32V144H316.65V144H317.67V144H317.93V144H318.22V144H318.8V144H319.07V144H319.43V144H319.68V144H320.43V144H320.98V144H321.47V144H321.73V144H322.7V144H322.97V144H323.72V144H323.97V144H324.63V144H324.88V144H325.43V144H325.7V144H326V144H326.25V144H326.68V144H326.95V144H327.25V144H327.57V144H327.82V144H328.07V144H328.43V144H328.93V144H329.2V144H329.47V144H330.47V144H331.48V144H331.73V144H332.37V144H332.62V144H332.98V144H333.38V144H333.97V144H334.22V144H334.8V144H335.08V144H335.47V144H336.08V144H336.5V144H336.75V144H337.17V144H337.55V144H337.83V144H338.32V144H338.62V144H338.88V144H339.18V144H339.53V144H339.97V144H340.28V144H340.53V144H340.78V144H341.63V144H341.88V144H342.35V144H342.62V144H342.87V144H343.87V144H344.13V144H344.7V144H345.07V144H345.8V144H346.05V144H347.07V144H347.32V144H347.57V144H348.13V144H348.62V144H348.87V144H349.57V144H349.83V144H350.08V160H350.33V144H351.65V144H351.65V144H351.95V144H352.2V144H352.65V144H352.92V144H353.32V144H353.57V144H353.87V144H354.35V144H354.8V144H355.08V144H355.65V144H356.1V144H356.67V144H356.92V144H357.93V144H358.48V144H359.03V144H359.28V144H360.3V144H361.32V144H362.05V144H362.3V144H362.57V144H363.57V144H363.88V144H364.13V144H364.38V144H364.63V160H364.88V160H365.15V160H365.4V160H365.65V160H365.9V160H366.15V160H366.4V160H366.67V160H366.92V160H367.17V160H367.42V160H367.67V160H367.93V160H368.18V160H368.43V160H368.72V160H368.97V144H369.27V144H369.57V144H369.82V144H370.83V144H371.27V144H371.52V144H371.8V160H372.07V144H372.32V144H372.57V144H373.08V144H374.08V144H374.65V144H374.9V144H375.35V144H375.6V144H376.62V144H377.27V144H377.52V144H378.53V160H382.82V160H383.1V144H383.35V144H384.58V144H385.38V144H385.82V144H386.22V144H386.77V144H387.28V144H388.07V144H388.3V144H388.55V144H388.8V160H389.07V160H389.32V160H389.57V160H389.82V160H390.07V160H390.33V160H390.6V160H390.85V144H391.62V144H392V144H392.37V144H392.83V144H393.83V160H394.85V160H395.1V144H395.35V144H396.02V144H396.32V144H396.7V144H397V144H397.25V144H397.57V144H397.83V144H398.1V144H398.35V144H398.77V144H399.03V144H399.83V144H400.18V144H400.43V144H400.9V144H401.15V144H401.55V144H401.8V144H402.35V144H402.6V144H403.6V144H403.85V144H404.25V144H404.52V144H404.97V144H405.38V144H405.65V144H406.67V144H407.07V144H407.35V144H407.6V144H407.97V144H408.22V144H409.23V144H409.48V144H409.77V144H410.25V144H410.75V144H411V144H411.5V144H412.35V144H412.52V144H412.77V144H413.27V144H413.58V144H413.85V144H414.2V144H414.47V144H414.72V144H415.67V144H415.92V144H416.93V144H417.48V144H418.1V144H418.35V144H418.73V144H418.98V144H419.55V144H419.8V144H420.23V144H420.7V144H420.97V144H421.77V144H422.27V144H422.83V144H423.12V144H423.55V144H424.17V144H424.58V144H424.83V144H425.32V144H425.57V144H426.25V144H426.55V144H427V144H427.25V144H427.9V144H428.22V144H429.12V144H429.37V144H430.38V160H430.98V160H431.23V144H431.5V160H431.75V160H432V160H432.27V160H432.52V160H432.77V160H433.02V160H433.27V160H433.52V160H433.78V144H434.12V144H435.12V144H435.53V144H436.13V144H436.5V144H436.77V144H437.33V144H437.6V144H437.85V144H438.68V144H438.95V144H439.32V144H439.57V144H439.83V144H440.2V144H440.45V144H440.78V144H441.05V144H441.32V144H441.57V144H441.82V144H442.07V144H442.53V144H443.55V144H443.9V144H444.42V144H444.67V144H445.07V144H445.35V144H446.35V144H447.37V144H448.38V144H449.08V144H450.08V144H450.38V160H450.63V160H450.92V160H451.17V160H451.42V160H451.67V160H451.95V160H452.2V160H452.45V160H452.7V160H452.95V160H453.22V160H453.48V160H453.73V160H453.98V160H454.27V160H454.53V144H454.78V160H455.03V160H455.3V160H455.55V160H455.83V160H456.1V160H456.35V160H456.6V160H456.85V160H457.17V160H457.42V160H457.68V160H457.93V160H458.18V160H458.47V160H458.72V160H458.97V160H459.23V160H459.5V160H459.75V160H460.02V160H460.27V160H460.52V160H460.77V160H461.02V160H461.28V160H461.53V160H461.8V160H462.05V160H462.3V160H462.57V160H462.82V160H463.07V160H463.4V160H463.65V160H463.92V160H464.17V160H464.42V160H464.67V160H464.92V160H465.17V160H465.43V160H465.68V160H465.95V160H466.22V160H466.47V160H466.73V160H467V160H467.25V160H467.5V160H467.77V160H468.03V160H468.3V160H468.55V144H468.8V160H469.05V160H469.32V160H469.6V160H469.85V144H470.18V144H470.47V144H470.95V144H471.22V144H471.67V144H471.93V144H472.88V144H473.53V144H473.78V144H474.05V144H475.07V160H475.37V160H475.62V160H475.88V160H476.65V144H476.9V144H477.23V144H477.6V144H478.05V144H478.3V144H479.32V144H480.2V144H480.45V144H481.47V144H482.22V144H482.48V144H483.48V144H484.5V144H485.3V144H485.55V144H486.12V144H486.38V144H487.02V144H487.27V144H488.28V144H489.25V144H489.5V144H490.25V144H490.5V144H490.93V144H491.2V144H491.63V144H491.88V144H492.15V144H492.4V144H492.87V144H493.13V144H493.42V144H493.88V144H494.55V144H495.08V144H495.37V144H495.9V144H496.28V144H496.55V144H497.08V144H497.35V144H497.78V144H498.03V144H499.03V144H499.28V144H499.87V144H500.12V144H501.13V144H501.65V144H501.9V144H502.58V144H502.87V144H503.42V144H504.13V144H504.45V144H505.33V144H505.58V144H506.18V144H506.55V144H506.82V144H507.27V144H507.98V144H508.3V144H508.62V144H508.97V144H509.37V144H509.62V144H510.35V144H510.62V144H511.42V144H511.7V144H512.72V144H512.97V144H513.23V144H513.48V144H513.73V144H514V144H514.33V144H514.67V144H514.93V144H515.2V144H515.45V144H515.87V144H516.17V144H516.65V144H516.9V144H517.6V144H517.87V144H518.87V144H519.23V144H519.48V144H519.73V144H519.98V144H520.35V144H521.15V144H521.53V144H522.42V144H522.85V144H523.85V144H524.28V144H524.97V144H525.22V144H526.23V144H526.57V144H527.53V144H527.85V144H528.1V144H528.37V144H528.63V144H529.08V144H529.33V144H529.67V144H530.67V144H530.97V144H531.27V144H531.53V144H531.78V144H532.33V144H532.58V144H533.32V144H533.58V144H534.32V144H534.57V144H534.98V144H535.23V144H535.87V144H536.22V144H536.48V144H536.73V144H537.75V160H538.75V160H539.77V160" style="vector-effect: none; fill: none; stroke: rgb(255, 99, 71); stroke-opacity: 1; stroke-width: 2px; opacity: 1;"/></g><g class="points"/><g class="text"/></g></g></g><g class="overplot"/><path class="xlines-above crisp" d="M0,0" style="fill: none;"/><path class="ylines-above crisp" d="M0,0" style="fill: none;"/><g class="overlines-above"/><g class="xaxislayer-above"><g class="xtick"><text text-anchor="middle" x="0" y="232" transform="translate(140,0)" style="font-family: 'Open Sans', verdana, arial, sans-serif; font-size: 11px; fill: rgb(42, 63, 95); fill-opacity: 1; white-space: pre; opacity: 1;"><tspan class="line" dy="0em" x="0" y="232">10:00</tspan><tspan class="line" dy="1.3em" x="0" y="232">Aug 2, 2023</tspan></text></g><g class="xtick"><text text-anchor="middle" x="0" y="232" style="font-family: 'Open Sans', verdana, arial, sans-serif; font-size: 11px; fill: rgb(42, 63, 95); fill-opacity: 1; white-space: pre; opacity: 1;" transform="translate(260,0)">12:00</text></g><g class="xtick"><text text-anchor="middle" x="0" y="232" style="font-family: 'Open Sans', verdana, arial, sans-serif; font-size: 11px; fill: rgb(42, 63, 95); fill-opacity: 1; white-space: pre; opacity: 1;" transform="translate(380,0)">14:00</text></g><g class="xtick"><text text-anchor="middle" x="0" y="232" style="font-family: 'Open Sans', verdana, arial, sans-serif; font-size: 11px; fill: rgb(42, 63, 95); fill-opacity: 1; white-space: pre; opacity: 1;" transform="translate(500,0)">16:00</text></g><g class="xtick"><text text-anchor="middle" x="0" y="232" style="font-family: 'Open Sans', verdana, arial, sans-serif; font-size: 11px; fill: rgb(42, 63, 95); fill-opacity: 1; white-space: pre; opacity: 1;" transform="translate(620,0)">18:00</text></g></g><g class="yaxislayer-above"><g class="ytick"><text text-anchor="end" x="79" y="3.8499999999999996" transform="translate(0,220)" style="font-family: 'Open Sans', verdana, arial, sans-serif; font-size: 11px; fill: rgb(42, 63, 95); fill-opacity: 1; white-space: pre; opacity: 1;">0</text></g><g class="ytick"><text text-anchor="end" x="79" y="3.8499999999999996" style="font-family: 'Open Sans', verdana, arial, sans-serif; font-size: 11px; fill: rgb(42, 63, 95); fill-opacity: 1; white-space: pre; opacity: 1;" transform="translate(0,186.67000000000002)">50</text></g><g class="ytick"><text text-anchor="end" x="79" y="3.8499999999999996" style="font-family: 'Open Sans', verdana, arial, sans-serif; font-size: 11px; fill: rgb(42, 63, 95); fill-opacity: 1; white-space: pre; opacity: 1;" transform="translate(0,153.32999999999998)">100</text></g><g class="ytick"><text text-anchor="end" x="79" y="3.8499999999999996" style="font-family: 'Open Sans', verdana, arial, sans-serif; font-size: 11px; fill: rgb(42, 63, 95); fill-opacity: 1; white-space: pre; opacity: 1;" transform="translate(0,120)">150</text></g><g class="ytick"><text text-anchor="end" x="79" y="3.8499999999999996" style="font-family: 'Open Sans', verdana, arial, sans-serif; font-size: 11px; fill: rgb(42, 63, 95); fill-opacity: 1; white-space: pre; opacity: 1;" transform="translate(0,86.67)">200</text></g></g><g class="overaxes-above"/></g></g><g class="polarlayer"/><g class="smithlayer"/><g class="ternarylayer"/><g class="geolayer"/><g class="funnelarealayer"/><g class="pielayer"/><g class="iciclelayer"/><g class="treemaplayer"/><g class="sunburstlayer"/><g class="glimages"/><defs id="topdefs-764eac"><g class="clips"/><clipPath id="legend764eac"><rect width="148" height="65" x="0" y="0"/></clipPath></defs><g class="layer-above"><g class="imagelayer"/><g class="shapelayer"/></g><g class="infolayer"><g class="legend" pointer-events="all" transform="translate(468.8,61.6)"><rect class="bg" shape-rendering="crispEdges" style="stroke: rgb(68, 68, 68); stroke-opacity: 1; fill: rgb(255, 255, 255); fill-opacity: 1; stroke-width: 0px;" width="148" height="65" x="0" y="0"/><g class="scrollbox" transform="" clip-path="url(#legend764eac)"><text class="legendtitletext" text-anchor="start" x="2" y="16.900000000000002" style="font-family: 'Open Sans', verdana, arial, sans-serif; font-size: 13px; fill: rgb(42, 63, 95); fill-opacity: 1; white-space: pre;">Task names</text><g class="groups" transform=""><g class="traces" transform="translate(0,31.400000000000002)" style="opacity: 1;"><text class="legendtext" text-anchor="start" x="40" y="4.29" style="font-family: 'Open Sans', verdana, arial, sans-serif; font-size: 11px; fill: rgb(42, 63, 95); fill-opacity: 1; white-space: pre;">MFALG Assembly</text><g class="layers" style="opacity: 1;"><g class="legendfill"/><g class="legendlines"/><g class="legendsymbols"><g class="legendpoints"><path class="legendundefined" d="M6,6H-6V-6H6Z" transform="translate(20,0)" style="stroke-width: 0.5px; fill: rgb(255, 215, 0); fill-opacity: 1; stroke: rgb(229, 236, 246); stroke-opacity: 1;"/></g></g></g><rect class="legendtoggle" x="0" y="-9.5" width="142.484375" height="19" style="fill: rgb(0, 0, 0); fill-opacity: 0;"/></g></g><g class="groups" transform=""><g class="traces" transform="translate(0,50.400000000000006)" style="opacity: 1;"><text class="legendtext" text-anchor="start" x="40" y="4.29" style="font-family: 'Open Sans', verdana, arial, sans-serif; font-size: 11px; fill: rgb(42, 63, 95); fill-opacity: 1; white-space: pre;">Presence indicator</text><g class="layers" style="opacity: 1;"><g class="legendfill"/><g class="legendlines"><path class="js-line" d="M5,0h30" style="fill: none; stroke: rgb(255, 99, 71); stroke-opacity: 1; stroke-width: 2px;"/></g><g class="legendsymbols"><g class="legendpoints"/></g></g><rect class="legendtoggle" x="0" y="-9.5" width="142.484375" height="19" style="fill: rgb(0, 0, 0); fill-opacity: 0;"/></g></g></g><rect class="scrollbar" rx="20" ry="3" width="0" height="0" style="fill: rgb(128, 139, 164); fill-opacity: 1;" x="0" y="0"/></g><g class="g-gtitle"/><g class="g-xtitle"><text class="xtitle" x="350" y="271.9125" text-anchor="middle" style="font-family: 'Open Sans', verdana, arial, sans-serif; font-size: 13px; fill: rgb(42, 63, 95); opacity: 1; font-weight: normal; white-space: pre;">Timestamp</text></g><g class="g-ytitle"><text class="ytitle" transform="rotate(-90,34.415625,140)" x="34.415625" y="140" text-anchor="middle" style="font-family: 'Open Sans', verdana, arial, sans-serif; font-size: 13px; fill: rgb(42, 63, 95); opacity: 1; font-weight: normal; white-space: pre;">Duration (seconds)</text></g></g></svg>